<svg width="64" height="64" viewBox="0 0 64 64" fill="none" xmlns="http://www.w3.org/2000/svg">
<path d="M32.0367 16.6877C41.7698 16.8682 51.1357 19.3488 59.3079 25.4827C60.4557 26.3396 61.5117 27.377 62.384 28.5045C64.6336 31.346 64.5418 33.7364 62.0626 36.3974C60.6853 37.8858 59.1243 39.2388 57.4256 40.4115C42.5503 50.5144 20.0079 50.1536 5.45406 39.5997C3.93899 38.5172 2.56165 37.119 1.36795 35.6758C-0.376672 33.556 -0.468499 31.4813 1.18431 29.2713C2.33209 27.7378 3.75533 26.2494 5.31632 25.1219C13.1212 19.3488 22.0739 17.0035 32.0367 16.6877ZM44.0195 32.2931C44.0654 25.9337 38.5101 20.5214 32.0367 20.5214C25.6091 20.5214 20.0997 25.7984 20.0079 32.0225C19.9161 38.4721 25.5173 44.0648 31.9907 44.0648C38.4642 44.0648 43.9736 38.6525 44.0195 32.2931ZM22.1657 43.6137C18.952 40.4115 17.0696 36.668 17.1155 32.1578C17.1614 27.7378 19.0438 24.0394 22.2117 20.8822C21.4312 20.8822 20.8343 21.0176 20.2834 21.198C14.774 22.7314 9.63198 24.9865 5.36223 28.8202C2.51573 31.3911 2.33208 32.7441 4.81129 35.1796C9.58606 39.8252 15.6004 42.1705 22.1657 43.6137ZM41.5862 43.8393C48.3811 42.1254 54.2577 39.8252 58.9865 35.3149C61.6035 32.7892 61.6035 31.6617 59.0325 29.181C54.2577 24.6257 48.2892 22.3255 41.7698 20.7018C48.7024 30.94 48.7024 35.1345 41.5862 43.8393Z" fill="#863A20"/>
<path d="M31.9449 0H31.9909C32.7254 0 33.3223 0.586328 33.3223 1.30796V9.42636C33.3223 10.148 32.7254 10.7343 31.9909 10.7343H31.9449C31.2104 10.7343 30.6135 10.148 30.6135 9.42636V1.30796C30.6594 0.586328 31.2563 0 31.9449 0Z" fill="#863A20"/>
<path d="M31.9449 53.1755C32.6795 53.1755 33.2764 53.7619 33.2764 54.4835V62.6921C33.2764 63.4137 32.6795 64.0001 31.9449 64.0001C31.2104 64.0001 30.6135 63.4137 30.6135 62.6921V54.4835C30.6594 53.7168 31.2104 53.1755 31.9449 53.1755Z" fill="#863A20"/>
<path d="M59.9506 9.42635C58.1141 11.5461 56.3236 13.666 54.4412 15.8309C53.9821 16.3721 53.2016 16.4623 52.6507 16.0113L52.3752 15.7858C51.7784 15.3347 51.6866 14.4778 52.1916 13.9366C54.028 11.8168 55.8645 9.69696 57.7009 7.53205C58.16 6.99083 58.9864 6.90062 59.5374 7.35165L59.8129 7.57716C60.3638 8.07328 60.4556 8.88512 59.9506 9.42635Z" fill="#863A20"/>
<path d="M9.54017 15.8309C7.65781 13.666 5.86727 11.5913 3.98491 9.42635C3.5258 8.88512 3.5717 8.07328 4.12264 7.62226L4.39811 7.39675C4.94904 6.94573 5.77544 6.99083 6.23456 7.53206C8.07101 9.65186 9.90746 11.7717 11.7898 13.8915C12.2489 14.4327 12.203 15.2445 11.6521 15.6956L11.3766 15.9211C10.8716 16.4172 10.0452 16.3721 9.54017 15.8309Z" fill="#863A20"/>
<path d="M4.44401 56.4227L4.16854 56.1972C3.6176 55.7462 3.57169 54.9343 4.03081 54.3931C5.91317 52.2733 7.70371 50.1535 9.58607 48.0337C10.0452 47.4925 10.8257 47.4474 11.3766 47.8533L11.6521 48.0788C12.203 48.5298 12.2948 49.3416 11.8357 49.928C9.99927 52.0478 8.20873 54.1225 6.28045 56.3325C5.82134 56.8286 4.99494 56.8737 4.44401 56.4227Z" fill="#863A20"/>
<path d="M52.3294 48.1241L52.6049 47.8986C53.1099 47.4476 53.8904 47.4927 54.3495 47.9437C54.3954 47.9888 54.4872 48.079 54.5331 48.1241C56.3237 50.1988 58.1142 52.2735 59.9966 54.4384C60.4557 54.9796 60.4098 55.7464 59.9047 56.1974L59.6752 56.4229C59.1243 56.919 58.2979 56.8739 57.7928 56.3327C55.9564 54.2129 54.1199 52.1382 52.2376 49.9733C51.6866 49.387 51.7785 48.5751 52.3294 48.1241Z" fill="#863A20"/>
<path d="M32.1287 25.0769C36.3984 25.2122 39.5663 28.4596 39.3827 32.5188C39.199 36.4427 35.8016 39.5998 31.8532 39.5096C27.7671 39.4194 24.4156 35.9466 24.5992 32.0227C24.8288 27.9184 28.0885 24.9416 32.1287 25.0769Z" fill="#863A20"/>
</svg>
