<svg width="97" height="57" viewBox="0 0 97 57" fill="none" xmlns="http://www.w3.org/2000/svg">
<path d="M96.5129 38.1909C96.4687 38.0587 96.4244 37.9266 96.4244 37.7944C96.2916 37.2658 96.1145 36.8253 95.9374 36.4289C95.4061 35.2836 94.565 34.4907 93.7238 33.7859C93.4139 33.5216 93.0597 33.2573 92.7498 32.993C92.3071 32.6407 91.9086 32.3323 91.5545 32.024C90.7576 31.3192 90.5805 30.8787 90.5805 30.3941C90.5805 29.4691 90.8461 28.9845 91.0675 28.7202C91.2003 28.544 91.3774 28.3679 91.5102 28.1917C91.7758 27.8833 92.0857 27.5309 92.3514 27.1345C92.7941 26.5178 93.104 25.857 93.2368 25.2403C93.591 23.4343 92.617 21.6283 90.8018 20.7913C90.1378 20.483 89.4737 20.3508 88.7653 20.3949C87.7028 20.483 86.7288 20.9235 86.0205 21.7604C85.7548 22.0688 85.4892 22.3331 85.2678 22.6414C85.135 22.3771 84.9579 22.1569 84.7366 21.9366C83.9839 21.1878 83.01 20.7913 81.9917 20.8794C81.7261 20.8794 81.4162 20.9675 81.1505 21.0116C80.3536 21.2759 79.6896 21.7604 79.2468 22.4212L78.8927 20.1747L78.8484 19.9544C78.8041 19.8223 78.8041 19.6901 78.7598 19.558C78.4057 18.0603 77.6531 16.8709 76.5905 16.034C77.4317 15.4173 78.1843 14.6244 78.8041 13.7434C80.1323 11.7612 80.6193 9.38253 80.1323 7.09196C79.2468 2.68702 75.3066 -0.264299 70.7466 -1.78628e-06C70.3482 0.0440477 69.9054 0.0880971 69.507 0.176196C64.5043 1.18933 61.2724 5.77048 62.2021 10.66C62.3349 11.3207 62.512 11.9374 62.7777 12.51C62.2907 12.4219 61.7594 12.3779 61.2281 12.4219C60.6969 12.466 60.1656 12.5541 59.5901 12.7303C57.952 13.2148 56.5796 14.3161 55.8712 15.8578C55.1629 17.3555 55.0743 19.1175 55.7384 20.6592C55.7827 20.7913 55.8712 20.9675 55.9155 21.0997C56.0926 21.4961 56.2254 21.8485 56.3139 22.2009C56.6238 23.126 56.9337 24.1391 57.1994 25.1963C55.6499 24.1391 54.1003 23.0819 52.5508 22.0688C51.6211 21.4521 50.7357 21.0116 49.8502 20.7913C49.1419 20.5711 48.3892 20.527 47.6809 20.5711C47.6366 20.5711 47.5481 20.5711 47.5038 20.5711C48.9205 18.5448 49.5846 16.034 49.1861 13.4791C48.4335 8.41345 43.8735 4.84544 38.5609 5.19783C38.251 5.19783 37.8968 5.24188 37.5869 5.28593C32.1414 6.12287 28.4226 10.8362 28.9538 16.1221C28.2455 15.8578 27.4929 15.7257 26.7402 15.7697C26.0319 15.8138 25.3235 15.99 24.6152 16.3423C23.3313 16.959 22.313 17.9722 21.6047 19.2937C20.4093 21.5842 19.214 23.8748 18.0629 26.1654L16.8676 28.456C16.779 28.3679 16.7347 28.3238 16.6462 28.2357C14.6097 26.0773 12.5289 23.7867 10.4481 21.5842C9.73977 20.8354 8.98714 20.2628 8.19025 19.8223C7.17199 19.2496 6.02092 18.9853 4.95839 19.0734C2.52343 19.2496 0.575458 20.9675 0.0441939 23.5224C-0.177166 24.5355 -0.177166 25.7249 0.0441939 26.7821C1.59371 34.711 3.27605 42.9482 5.13548 51.9784C5.31256 52.9475 5.75529 53.9165 6.28655 54.7094C7.43762 56.3393 9.42986 57.2643 11.5549 57.1321C12.2633 57.0881 12.9716 56.9119 13.5914 56.6036C16.3806 55.3261 17.7087 52.7713 17.0447 49.864C16.6019 47.9258 16.1149 45.9436 15.6279 44.0054L16.1149 44.6221C17.4874 46.2519 19.0369 46.9567 20.8963 46.8686C21.4719 46.8246 22.0474 46.6924 22.7115 46.5162C24.3495 45.9876 25.722 44.6662 26.386 43.0804C26.9616 45.2388 27.4929 47.3091 28.0241 49.3794C28.6882 51.8903 30.5476 53.5641 33.1154 53.8725C33.5138 53.9165 33.9123 53.9165 34.3107 53.9165C35.3733 53.8284 36.3473 53.5201 37.1884 52.9915C38.1181 55.194 40.376 56.5155 42.9881 56.3833C43.298 56.3833 43.6079 56.3393 43.9178 56.2512C46.9283 55.6345 49.0091 52.9475 48.6992 49.9521C48.4778 47.7056 48.2122 45.459 47.9908 43.2566C48.4778 44.7102 49.0091 46.1638 49.5403 47.6175C50.47 50.1283 52.8607 51.67 55.4728 51.4938C56.0483 51.4498 56.5796 51.3617 57.1551 51.1414C60.4312 49.9521 62.0693 46.6484 60.9625 43.4768C60.874 43.1685 60.7411 42.8601 60.6526 42.5958C61.4052 43.0804 62.1136 43.609 62.8662 44.0935C63.7959 44.7102 64.6371 45.1066 65.5225 45.3709C66.2309 45.5912 66.9392 45.6352 67.6476 45.5912C68.7101 45.5031 69.6398 45.1507 70.4367 44.5781C70.5695 45.1066 70.7909 45.6793 71.1008 46.2079C72.2076 48.1461 74.3327 49.2473 76.6348 49.1152C77.2546 49.0711 77.9187 48.9389 78.5385 48.7187C81.1948 47.7496 82.8329 45.0185 82.3459 42.1553L82.1688 40.966C81.6818 37.8825 81.1505 34.755 80.6636 31.6716C80.6193 31.2751 80.5307 30.8346 80.4865 30.4382C80.9735 30.6144 81.5047 30.7465 82.036 30.7025C82.0803 30.7025 82.1245 30.7025 82.1688 30.7025C82.1688 30.9668 82.1688 31.2751 82.2131 31.5835C82.2573 32.4645 82.4787 33.4335 82.8329 34.4026C83.3642 35.9444 84.4267 36.9575 85.4007 37.7944C86.1533 38.4111 86.8616 39.1159 87.57 39.7326L87.7471 39.8648C86.596 40.3934 85.7991 41.4505 85.4892 42.728C85.1793 44.0495 85.5335 45.415 86.4632 46.3841C87.3929 47.3532 88.5882 47.8818 89.9164 48.0139C90.182 48.0139 90.4034 48.0139 90.669 48.0139C91.9086 47.9258 93.1483 47.4413 94.2551 46.5162C95.8931 45.1507 96.7786 43.5649 96.9114 41.7148C97.0885 40.2612 96.7786 39.16 96.5129 38.1909Z" fill="white"/>
<path d="M25.6778 31.187C24.8366 33.3014 23.9955 35.4598 23.11 37.6182C23.9512 38.279 24.4825 39.1599 24.6153 40.2612C24.7924 41.891 23.6413 43.653 22.0918 44.1816C20.3652 44.7542 19.2141 44.4018 18.063 43.0363C15.938 40.5255 13.8129 38.0147 11.7321 35.4598C11.5993 35.2836 11.4665 35.1514 11.2451 34.8871C11.2894 35.1514 11.2894 35.3276 11.3337 35.4598C11.7764 37.2658 12.2191 39.0278 12.6618 40.8338C13.4145 44.0054 14.2114 47.1329 14.964 50.3045C15.4067 52.1105 14.6098 53.5641 12.7946 54.357C11.3337 55.0178 9.34143 54.5773 8.41172 53.2558C8.01327 52.7272 7.74764 52.0664 7.61482 51.4057C5.88821 43.0363 4.20588 34.6228 2.52354 26.2535C2.39072 25.5046 2.34645 24.6677 2.52354 23.9188C3.01053 21.6283 5.17986 20.6592 7.21637 21.8045C7.83618 22.1569 8.41172 22.6414 8.89871 23.1259C11.6878 26.0773 14.477 29.1167 17.2661 32.068C17.3547 32.1561 17.4432 32.2442 17.576 32.3763C18.0187 31.5394 18.4172 30.7905 18.8156 29.9977C20.498 26.782 22.1803 23.5224 23.8627 20.3068C24.3054 19.4698 24.9252 18.8091 25.7664 18.4126C27.4487 17.6198 29.131 18.1924 29.9722 19.9103C30.3706 20.7473 30.6805 21.6283 30.9019 22.5092C31.6103 25.0201 32.2743 27.4868 32.9827 29.9977C33.8681 33.1252 34.7536 36.2086 35.639 39.3361C36.2145 41.3624 36.7458 43.3446 37.3214 45.3709C37.5427 46.1198 37.8083 46.8686 37.8083 47.6174C37.9412 49.9521 35.9489 51.714 33.6025 51.4057C31.9644 51.1854 30.9019 50.2604 30.4592 48.6306C29.2196 43.8292 27.98 39.0278 26.6961 34.2705C26.4304 33.2573 26.1205 32.2442 25.8549 31.231C25.7664 31.231 25.7221 31.187 25.6778 31.187Z" fill="#863A20"/>
<path d="M14.2555 30.9227C14.2555 31.0549 14.2113 31.187 14.0785 31.3192C13.8571 31.4954 13.5472 31.4954 13.3258 31.2751C11.3336 29.0726 9.2528 26.8702 7.17202 24.6677C6.81784 24.2713 6.41939 23.9629 6.06522 23.7427C5.84386 23.6105 5.6225 23.5665 5.40114 23.5665C5.13551 23.5665 4.86987 23.3462 4.86987 23.0379C4.86987 22.7736 5.09123 22.5093 5.40114 22.5093C5.75531 22.5093 6.15376 22.6414 6.55221 22.8176C6.99493 23.0819 7.48192 23.4343 7.92464 23.9189C10.0054 26.1213 12.0862 28.3679 14.0785 30.5263C14.2113 30.6584 14.2555 30.7906 14.2555 30.9227Z" fill="#A86952"/>
<path d="M34.3993 39.7766C34.3993 39.9969 34.2665 40.2171 34.0009 40.2612C33.7353 40.3493 33.4254 40.1731 33.3811 39.9088C32.9826 38.4111 32.5399 36.9575 32.1415 35.4598L32.0529 35.1514C31.6102 33.6097 31.1675 32.068 30.769 30.5703C30.5034 29.6453 30.2378 28.6762 29.9721 27.7511L29.9279 27.5749C29.5294 26.1213 29.0867 24.5796 28.6882 23.1259C28.4669 22.3331 28.2013 21.5402 27.8913 20.9235C27.5814 20.3508 27.2715 20.3508 27.183 20.3508C27.0502 20.3508 26.8731 20.3949 26.696 20.483C26.4304 20.6151 26.1205 20.483 25.9877 20.2187C25.8548 19.9544 25.9877 19.646 26.2533 19.5139C26.5632 19.3817 26.9174 19.2936 27.183 19.2936C27.67 19.2936 28.3341 19.5139 28.8211 20.4389C29.1752 21.1437 29.4409 21.9807 29.6622 22.8176C30.1049 24.3153 30.5034 25.813 30.9018 27.3106L30.9461 27.4868C31.2118 28.4119 31.4774 29.381 31.743 30.306C32.1857 31.8477 32.6285 33.3454 33.0269 34.8871L33.1154 35.1955C33.5582 36.6932 33.9566 38.1468 34.3551 39.6445C34.3993 39.6885 34.3993 39.7326 34.3993 39.7766Z" fill="#A86952"/>
<path d="M60.9625 30.6584C60.6526 29.2489 60.4755 28.0595 60.1656 26.9142C59.6786 25.1082 59.1473 23.3022 58.5718 21.4961C58.3947 20.9235 58.1291 20.3509 57.9077 19.7782C57.0666 17.796 58.1734 15.5935 60.2542 14.9768C62.4678 14.3601 64.1944 15.153 64.9913 17.3555C65.7439 19.4258 66.4965 21.5402 67.0278 23.6986C68.1788 28.5 69.2414 33.3014 70.3039 38.1468C70.4367 38.7635 70.481 39.4243 70.4367 40.041C70.3039 42.3315 68.5773 43.609 66.3194 42.9923C65.6111 42.8161 64.947 42.4196 64.3714 42.0232C61.9808 40.4374 59.6343 38.7635 57.2879 37.1337C57.0223 36.9575 56.7567 36.7813 56.4025 36.6492C56.5353 37.1337 56.6681 37.6182 56.8452 38.0587C57.5536 40.085 58.2619 42.0672 58.9703 44.0935C59.6786 46.1198 58.6604 48.058 56.5796 48.8068C54.7201 49.4676 52.6836 48.5866 51.9753 46.6484C51.0456 44.1376 50.2044 41.6268 49.319 39.1159C48.4778 36.7813 47.6366 34.4026 46.8397 32.068C46.3085 30.5703 45.7329 29.1167 45.3345 27.619C45.1131 26.9142 45.0688 26.0773 45.2017 25.3285C45.5116 23.3903 47.2824 22.3771 49.319 22.9938C50.0273 23.2141 50.7357 23.5665 51.3555 23.9629C54.4102 25.9892 57.4207 28.1036 60.4755 30.1739C60.5641 30.262 60.6969 30.4382 60.9625 30.6584Z" fill="#863A20"/>
<path d="M69.0642 38.4992C69.0642 38.7195 68.8871 38.9397 68.6657 38.9838C68.4001 39.0278 68.0902 38.8516 68.0459 38.5873L67.5147 36.1205C66.6292 32.2001 65.7438 28.1476 64.7698 24.1831C64.2828 22.2009 63.5744 20.2187 62.8218 18.0603C62.4234 17.0031 61.9364 17.0031 61.6265 17.0031C61.3608 17.0031 61.0952 16.7828 61.0952 16.4745C61.0952 16.2102 61.3166 15.9459 61.6265 15.9459C62.6447 15.9459 63.3974 16.5185 63.7958 17.7079C64.5927 19.9103 65.2568 21.8926 65.7881 23.9188C66.762 27.8833 67.6475 31.9358 68.5329 35.9003L69.0642 38.3671C69.0642 38.4111 69.0642 38.4552 69.0642 38.4992Z" fill="#A86952"/>
<path d="M62.1579 33.5657C62.1579 33.6978 62.1136 33.7859 62.0251 33.9181C61.848 34.1383 61.4938 34.1383 61.3167 33.9621L59.4573 32.3764C59.3687 32.2883 59.2802 32.2002 59.1916 32.1561C59.1474 32.1121 59.1031 32.068 59.0588 32.024L57.2879 30.7906C54.8972 29.1607 52.4623 27.4869 50.0273 25.857C49.4961 25.5046 49.0533 25.2844 48.6549 25.1522C48.4778 25.1082 48.3007 25.0641 48.1679 25.0641C47.9908 25.0641 47.858 25.1082 47.7252 25.1522C47.4596 25.2844 47.1496 25.1963 47.0168 24.932C46.884 24.6677 46.9726 24.3594 47.2382 24.2272C47.5038 24.0951 47.8137 24.007 48.1679 24.007C48.4335 24.007 48.6992 24.051 48.9648 24.1391C49.4518 24.2713 50.0273 24.5796 50.6471 24.976C53.0821 26.6059 55.5613 28.2798 57.9078 29.9096L59.7229 31.143C59.7672 31.187 59.8557 31.2751 59.9443 31.3192C60.0328 31.4073 60.1214 31.4513 60.2099 31.5394L62.0693 33.1252C62.1136 33.2573 62.1579 33.4335 62.1579 33.5657Z" fill="#A86952"/>
<path d="M90.8461 40.1291C90.7576 39.5124 90.492 38.9838 90.0492 38.5873C89.031 37.6623 88.0127 36.7813 86.9945 35.9003C86.1976 35.2396 85.445 34.4907 85.0908 33.5217C84.8252 32.8169 84.6481 32.068 84.6038 31.3192C84.5595 30.3941 84.6038 29.4251 84.6923 28.5C84.7366 27.7512 85.0908 27.1345 85.445 26.4737C86.109 25.3285 86.9059 24.3153 87.7471 23.3462C88.2784 22.7295 89.0753 22.5974 89.7836 22.9498C90.5362 23.3022 91.0675 24.0951 90.8904 24.8439C90.8019 25.1963 90.6248 25.5487 90.4034 25.813C90.005 26.3416 89.5623 26.8261 89.1638 27.3107C88.4112 28.2357 88.1898 29.2929 88.1898 30.4382C88.1898 31.8918 88.9424 32.949 89.9607 33.83C90.6691 34.4467 91.466 35.0193 92.1743 35.636C92.7941 36.1646 93.4139 36.6932 93.7681 37.4421C93.9009 37.7504 94.0337 38.0587 94.1223 38.4111C94.3879 39.3802 94.6978 40.3493 94.6093 41.3625C94.5207 42.728 93.7681 43.7411 92.7941 44.534C92.0415 45.1507 91.1561 45.5912 90.1378 45.5031C89.3852 45.4591 88.7211 45.1507 88.1898 44.6221C87.3487 43.7411 87.7914 42.1994 88.9424 41.7589C89.3409 41.5827 89.7393 41.5827 90.1821 41.7149C90.2706 41.7589 90.4034 41.7149 90.492 41.6708C90.8904 41.3625 91.0232 40.966 90.9347 40.4815C90.8904 40.3493 90.8904 40.2612 90.8461 40.1291Z" fill="#863A20"/>
<path d="M93.0154 37.9706C93.0154 38.1028 92.9268 38.2349 92.794 38.279C92.6169 38.3671 92.3956 38.279 92.3513 38.1028C92.1742 37.6623 91.7758 37.3099 91.2002 36.8253C90.8903 36.561 90.5804 36.3408 90.2705 36.0765C89.8278 35.7241 89.3851 35.3717 88.9424 34.9753C87.3928 33.6538 86.5959 32.112 86.5959 30.3941C86.5959 28.7202 87.0387 27.3987 87.9241 26.2535C88.1012 26.0332 88.2783 25.813 88.4554 25.5927C88.721 25.2844 88.9424 25.0201 89.1195 24.7558C89.2523 24.5796 89.2965 24.4915 89.2965 24.4474C89.2523 24.4034 89.208 24.3153 89.0752 24.2712C88.8981 24.1831 88.8095 23.9629 88.8981 23.7867C88.9866 23.6105 89.208 23.5224 89.3851 23.6105C89.7835 23.7867 90.0492 24.2272 90.0049 24.5355C90.0049 24.6236 89.9163 24.8439 89.695 25.1522C89.4736 25.4606 89.2523 25.7249 88.9866 25.9892C88.8095 26.2094 88.6325 26.4297 88.4554 26.6059C87.6585 27.619 87.26 28.8083 87.26 30.262C87.26 30.262 87.26 30.262 87.26 30.306C87.26 31.8477 87.9684 33.1692 89.3408 34.3586C89.7835 34.711 90.2262 35.0633 90.6247 35.4157C90.9346 35.68 91.2445 35.9003 91.5544 36.1646C92.1742 36.6932 92.6169 37.1337 92.8826 37.6623C93.0154 37.8385 93.0154 37.9266 93.0154 37.9706Z" fill="#A86952"/>
<path d="M45.2459 38.0587C45.6886 42.0232 46.1314 46.0317 46.5298 49.9962C46.7069 51.8022 45.4673 53.388 43.6079 53.7844C41.6156 54.1809 39.8005 53.2558 39.3135 51.4498C38.9593 50.1283 38.8708 48.7187 38.6937 47.3091C38.251 43.5209 37.8525 39.7326 37.4541 35.9444C37.1884 33.3895 36.8785 30.8346 36.6572 28.2357C36.4358 25.857 37.941 24.5356 39.8005 24.2713C42.4125 23.9629 43.8292 25.5047 44.0506 27.3107C44.1391 27.9714 44.936 35.1515 45.2459 38.0587Z" fill="#863A20"/>
<path d="M45.3345 50.1723C45.3345 50.4366 45.1575 50.6569 44.8475 50.7009C44.5819 50.745 44.3163 50.5247 44.272 50.2604C43.9621 47.0448 43.5637 43.7411 43.2538 40.8779L42.9881 38.323C42.6339 35.2396 41.8813 28.2357 41.7928 27.619C41.7042 26.8702 41.2615 26.5178 40.4646 26.5178C40.199 26.5178 39.9333 26.2975 39.9333 25.9892C39.9333 25.7249 40.1547 25.4606 40.4646 25.4606C41.7928 25.4606 42.6782 26.2094 42.811 27.4868C42.8996 28.0595 43.6965 35.1074 44.0064 38.1909L44.272 40.7457C44.5819 43.653 44.9361 46.9127 45.2903 50.1283C45.2903 50.1723 45.3345 50.1723 45.3345 50.1723Z" fill="#A86952"/>
<path d="M76.5906 20.5711C77.2104 24.3153 77.7859 28.1476 78.4057 31.9359C78.9812 35.4158 79.5568 38.9397 80.1323 42.4196C80.3979 44.1816 79.4682 45.8114 77.8302 46.4281C76.015 47.0889 74.1113 46.5603 73.2259 44.9745C72.8717 44.4019 72.7389 43.6971 72.6061 42.9923C72.0305 39.7767 71.5435 36.5611 71.0123 33.3014C70.3482 29.2929 69.6841 25.3284 69.1086 21.3199C68.7544 19.0734 70.1268 17.6198 72.0305 17.2674C74.4655 16.8269 76.015 18.0603 76.4577 19.9985C76.5463 20.1746 76.5463 20.3508 76.5906 20.5711Z" fill="#863A20"/>
<path d="M78.7156 41.3624C78.7156 41.6267 78.5385 41.847 78.2728 41.891C78.0072 41.9351 77.7416 41.7589 77.6973 41.4505L77.6088 40.922C77.1218 38.0587 76.6791 35.1955 76.1921 32.2883C75.7493 29.6893 75.3509 27.0464 74.9524 24.4475L74.3326 20.7473C74.3326 20.6592 74.2884 20.5711 74.2884 20.5271C74.1555 19.9544 73.8899 19.602 73.4915 19.5139C73.2258 19.4258 73.0487 19.1615 73.1373 18.8972C73.2258 18.6329 73.4915 18.4567 73.7571 18.5448C74.2884 18.721 75.041 19.1175 75.3066 20.3068C75.3066 20.3949 75.3509 20.483 75.3509 20.5711L75.3952 20.7914L75.9707 24.3153C76.3692 26.9142 76.8119 29.5572 77.2103 32.1561C77.653 35.0193 78.14 37.8825 78.627 40.7898L78.7156 41.3184C78.7156 41.2744 78.7156 41.3184 78.7156 41.3624Z" fill="#A86952"/>
<path d="M83.1872 25.9011C83.0986 26.3856 83.0543 26.8702 82.9658 27.3987C82.8773 27.8833 82.4788 28.2357 81.9918 28.2797C81.5048 28.3238 80.9736 28.0595 80.8407 27.619C80.7965 27.4428 80.7522 27.2666 80.7522 27.0904C80.8407 26.1213 80.9736 25.1522 81.0621 24.1831C81.1064 23.6986 81.372 23.3902 81.8147 23.2581C82.2575 23.1259 82.7002 23.214 83.0543 23.5664C83.2757 23.8307 83.3642 24.1391 83.32 24.4474C83.2757 24.932 83.1872 25.4165 83.1429 25.9451C83.1429 25.9011 83.1872 25.9011 83.1872 25.9011Z" fill="#863A20"/>
<path d="M77.8301 7.48841C78.5385 11.0124 76.1478 14.5804 72.4732 15.2852C68.8429 16.034 65.0798 13.6553 64.46 10.2195C63.7959 6.60742 66.1866 3.21561 69.9054 2.46677C73.6243 1.71793 77.1218 3.96445 77.8301 7.48841Z" fill="#863A20"/>
<path d="M75.7052 9.11825C75.7495 8.7218 75.7052 8.32536 75.6167 7.92891C75.2182 5.94669 73.4473 4.5371 71.4551 4.44901C71.4994 4.49305 74.7312 7.13602 75.7052 9.11825Z" fill="white"/>
<path d="M38.0295 7.53245C42.3681 6.87171 46.3083 9.64682 46.9281 13.7434C47.548 17.8841 44.5817 21.8045 40.3316 22.4212C36.0815 23.0379 31.9642 20.1306 31.3887 16.1221C30.8131 11.9814 33.7351 8.19319 38.0295 7.53245Z" fill="#863A20"/>
<path d="M38.3396 9.47062C41.2616 7.18005 46.22 10.5278 44.9361 14.0958C43.1653 11.7171 41.1287 10.4397 38.3396 9.47062Z" fill="white"/>
<path d="M81.6818 17.2674C81.6375 16.2542 82.3016 15.5494 83.1428 15.4613C83.9839 15.4173 84.7366 16.034 84.8251 17.0471C84.8694 18.0603 84.2053 18.7651 83.3641 18.8091C82.4787 18.8972 81.7261 18.2805 81.6818 17.2674ZM84.5595 17.0912C84.5152 16.2542 83.8511 15.6816 83.1428 15.7256C82.3901 15.7697 81.8589 16.4304 81.9031 17.2674C81.9474 18.1043 82.6115 18.677 83.3198 18.6329C84.0725 18.5889 84.648 17.9281 84.5595 17.0912ZM82.6115 16.2983L83.187 16.2542C83.4969 16.2542 83.8511 16.3423 83.8954 16.7828C83.8954 17.0031 83.7626 17.2233 83.5855 17.3114L84.0725 18.0603H83.7626L83.3641 17.3995L82.9214 17.4436L82.9657 18.1043H82.7L82.6115 16.2983ZM83.187 17.1352C83.4527 17.1352 83.674 17.0031 83.6297 16.7828C83.6297 16.5626 83.4969 16.4304 83.187 16.4745H82.8771L82.9214 17.1352H83.187Z" fill="white"/>
</svg>
