<svg width="64" height="65" viewBox="0 0 64 65" fill="none" xmlns="http://www.w3.org/2000/svg">
<path d="M54.3844 22.9363C55.0958 22.6231 55.8072 22.2652 56.4741 21.952C60.8757 28.8862 61.6316 45.6624 49.4048 56.5781C38.1117 66.6885 20.5052 66.4648 9.30103 55.9518C-1.8142 45.5729 -3.14803 27.8125 6.27769 15.7337C16.5037 2.67063 33.0876 2.22326 41.8909 7.14427C41.5797 7.86006 41.224 8.57584 40.8238 9.47057C32.9987 6.16007 25.307 6.20481 17.7931 9.91793C12.3688 12.6021 8.32289 16.7626 5.61077 22.2205C0.231001 33.1809 2.76527 46.065 11.9687 54.4307C20.5497 62.2149 33.9769 63.3333 43.7583 57.1149C55.2292 49.8229 58.875 38.0572 54.3844 22.9363Z" fill="#FBCB00"/>
<path d="M47.3595 26.0678C48.1153 25.7099 48.7822 25.4414 49.4047 25.1283C52.9171 29.9151 53.2283 42.3518 44.8252 50.2255C36.4666 58.0543 23.3061 58.278 15.0808 50.6728C6.27758 42.5755 5.21051 29.6467 12.591 20.2073C19.438 11.4837 31.7092 10.0968 38.6451 14.2126C38.3339 14.9284 38.0227 15.6442 37.667 16.5389C32.2428 14.3021 26.9075 14.2126 21.7055 16.6731C17.7485 18.5073 14.7696 21.4599 12.7244 25.3072C8.81185 32.8677 10.4124 42.2624 16.5481 48.0781C22.7726 53.9386 31.9315 55.1017 39.1342 50.8965C47.5373 45.9755 50.3384 37.7887 47.3595 26.0678Z" fill="#FBCB00"/>
<path d="M29.1753 40.4729C26.9967 40.3387 24.996 39.1308 23.8844 36.6255C22.7729 34.1203 23.3065 31.7493 25.0404 29.7809C26.7744 27.8572 28.9975 27.0967 31.4873 28.0361C32.91 28.573 33.7548 28.3046 34.7774 27.2756C37.8452 24.0546 41.0019 20.923 44.1586 17.7915C45.0923 16.8968 45.5814 15.9573 45.1368 14.6599C44.2476 12.0205 45.1812 10.0521 47.2709 8.26262C49.8496 6.02579 52.0727 3.43108 54.5625 1.06005C55.1849 0.478472 56.3409 -0.147839 57.0078 0.0311068C57.5858 0.210053 58.1638 1.46267 58.2527 2.31267C58.4306 4.28107 59.0086 5.62317 61.2761 5.44422C61.7207 5.39948 62.1653 5.57843 62.5655 5.71264C64.0771 6.24948 64.4773 7.27842 63.3658 8.35209C60.0756 11.7521 56.6966 15.152 53.2731 18.3731C52.7396 18.8652 51.4502 18.9546 50.6055 18.731C48.249 18.1046 46.5595 18.6862 44.9589 20.5651C42.4247 23.473 39.6236 26.1572 36.8226 28.7967C35.6666 29.8703 35.3109 30.8098 35.8444 32.4203C37.0449 36.5808 33.8882 40.5176 29.1753 40.4729ZM55.9408 3.92318C55.4072 4.10213 55.1405 4.14686 55.0071 4.28107C52.7841 6.47316 50.561 8.66525 48.3824 10.8573C47.3598 11.8863 47.2264 14.9284 48.1157 15.7336C48.9604 16.4941 51.8504 16.2257 52.7841 15.331C54.1179 14.0336 55.4517 12.7363 56.7411 11.3942C57.7637 10.3652 58.6974 9.29156 60.0756 7.85999C57.1857 7.72578 55.7185 6.56263 55.9408 3.92318Z" fill="#FBCB00"/>
<path d="M35.5329 21.2811C35.2216 21.9968 34.9104 22.7126 34.5992 23.3837C32.9541 23.1152 31.4424 22.7574 29.8863 22.7126C22.9949 22.5784 17.8374 28.2599 18.3265 35.3283C18.7711 41.7256 24.9511 46.4677 31.5314 45.4835C38.0227 44.544 42.4243 37.8783 40.6903 31.3915C40.1568 29.3784 40.8682 28.8415 42.4688 28.5284C45.2253 32.5546 44.1583 40.8309 38.823 45.2151C33.0875 49.9124 24.9511 49.5992 19.5714 44.4098C14.6362 39.5335 14.0582 30.9441 18.3709 25.3968C22.5503 19.9837 30.2865 18.1048 35.5329 21.2811Z" fill="#FBCB00"/>
</svg>
