<svg width="7" height="26" viewBox="0 0 7 26" fill="none" xmlns="http://www.w3.org/2000/svg">
<path d="M6.33454 25.1723C6.33454 25.4366 6.15745 25.6569 5.84755 25.7009C5.58191 25.745 5.31628 25.5247 5.27201 25.2604C4.96211 22.0448 4.56366 18.7411 4.25375 15.8779L3.98812 13.323C3.63394 10.2396 2.88132 3.23569 2.79278 2.619C2.70423 1.87015 2.26151 1.51776 1.46462 1.51776C1.19898 1.51776 0.93335 1.29751 0.93335 0.989165C0.93335 0.724868 1.15471 0.460571 1.46462 0.460571C2.79278 0.460571 3.67822 1.20941 3.81103 2.48685C3.89958 3.05949 4.69647 10.1074 5.00638 13.1909L5.27201 15.7457C5.58191 18.653 5.93609 21.9127 6.29027 25.1283C6.29027 25.1723 6.33454 25.1723 6.33454 25.1723Z" fill="#A86952"/>
</svg>
