<svg width="97" height="57" viewBox="0 0 97 57" fill="none" xmlns="http://www.w3.org/2000/svg">
<path d="M96.5129 38.1909C96.4687 38.0587 96.4244 37.9266 96.4244 37.7944C96.2916 37.2658 96.1145 36.8253 95.9374 36.4289C95.4061 35.2836 94.565 34.4907 93.7238 33.7859C93.4139 33.5216 93.0597 33.2573 92.7498 32.993C92.3071 32.6407 91.9086 32.3323 91.5545 32.024C90.7576 31.3192 90.5805 30.8787 90.5805 30.3941C90.5805 29.4691 90.8461 28.9845 91.0675 28.7202C91.2003 28.544 91.3774 28.3679 91.5102 28.1917C91.7758 27.8833 92.0857 27.5309 92.3514 27.1345C92.7941 26.5178 93.104 25.857 93.2368 25.2403C93.591 23.4343 92.617 21.6283 90.8018 20.7913C90.1378 20.483 89.4737 20.3508 88.7653 20.3949C87.7028 20.483 86.7288 20.9235 86.0205 21.7604C85.7548 22.0688 85.4892 22.3331 85.2678 22.6414C85.135 22.3771 84.9579 22.1569 84.7366 21.9366C83.9839 21.1878 83.01 20.7913 81.9917 20.8794C81.7261 20.8794 81.4162 20.9675 81.1505 21.0116C80.3536 21.2759 79.6896 21.7604 79.2468 22.4212L78.8927 20.1747L78.8484 19.9544C78.8041 19.8223 78.8041 19.6901 78.7598 19.558C78.4057 18.0603 77.6531 16.8709 76.5905 16.034C77.4317 15.4173 78.1843 14.6244 78.8041 13.7434C80.1323 11.7612 80.6193 9.38253 80.1323 7.09196C79.2468 2.68702 75.3066 -0.264299 70.7466 -1.78628e-06C70.3482 0.0440477 69.9054 0.0880971 69.507 0.176196C64.5043 1.18933 61.2724 5.77048 62.2021 10.66C62.3349 11.3207 62.512 11.9374 62.7777 12.51C62.2907 12.4219 61.7594 12.3779 61.2281 12.4219C60.6969 12.466 60.1656 12.5541 59.5901 12.7303C57.952 13.2148 56.5796 14.3161 55.8712 15.8578C55.1629 17.3555 55.0743 19.1175 55.7384 20.6592C55.7827 20.7913 55.8712 20.9675 55.9155 21.0997C56.0926 21.4961 56.2254 21.8485 56.3139 22.2009C56.6238 23.126 56.9337 24.1391 57.1994 25.1963C55.6499 24.1391 54.1003 23.0819 52.5508 22.0688C51.6211 21.4521 50.7357 21.0116 49.8502 20.7913C49.1419 20.5711 48.3892 20.527 47.6809 20.5711C47.6366 20.5711 47.5481 20.5711 47.5038 20.5711C48.9205 18.5448 49.5846 16.034 49.1861 13.4791C48.4335 8.41345 43.8735 4.84544 38.5609 5.19783C38.251 5.19783 37.8968 5.24188 37.5869 5.28593C32.1414 6.12287 28.4226 10.8362 28.9538 16.1221C28.2455 15.8578 27.4929 15.7257 26.7402 15.7697C26.0319 15.8138 25.3235 15.99 24.6152 16.3423C23.3313 16.959 22.313 17.9722 21.6047 19.2937C20.4093 21.5842 19.214 23.8748 18.0629 26.1654L16.8676 28.456C16.779 28.3679 16.7347 28.3238 16.6462 28.2357C14.6097 26.0773 12.5289 23.7867 10.4481 21.5842C9.73977 20.8354 8.98714 20.2628 8.19025 19.8223C7.17199 19.2496 6.02092 18.9853 4.95839 19.0734C2.52343 19.2496 0.575458 20.9675 0.0441939 23.5224C-0.177166 24.5355 -0.177166 25.7249 0.0441939 26.7821C1.59371 34.711 3.27605 42.9482 5.13548 51.9784C5.31256 52.9475 5.75529 53.9165 6.28655 54.7094C7.43762 56.3393 9.42986 57.2643 11.5549 57.1321C12.2633 57.0881 12.9716 56.9119 13.5914 56.6036C16.3806 55.3261 17.7087 52.7713 17.0447 49.864C16.6019 47.9258 16.1149 45.9436 15.6279 44.0054L16.1149 44.6221C17.4874 46.2519 19.0369 46.9567 20.8963 46.8686C21.4719 46.8246 22.0474 46.6924 22.7115 46.5162C24.3495 45.9876 25.722 44.6662 26.386 43.0804C26.9616 45.2388 27.4929 47.3091 28.0241 49.3794C28.6882 51.8903 30.5476 53.5641 33.1154 53.8725C33.5138 53.9165 33.9123 53.9165 34.3107 53.9165C35.3733 53.8284 36.3473 53.5201 37.1884 52.9915C38.1181 55.194 40.376 56.5155 42.9881 56.3833C43.298 56.3833 43.6079 56.3393 43.9178 56.2512C46.9283 55.6345 49.0091 52.9475 48.6992 49.9521C48.4778 47.7056 48.2122 45.459 47.9908 43.2566C48.4778 44.7102 49.0091 46.1638 49.5403 47.6175C50.47 50.1283 52.8607 51.67 55.4728 51.4938C56.0483 51.4498 56.5796 51.3617 57.1551 51.1414C60.4312 49.9521 62.0693 46.6484 60.9625 43.4768C60.874 43.1685 60.7411 42.8601 60.6526 42.5958C61.4052 43.0804 62.1136 43.609 62.8662 44.0935C63.7959 44.7102 64.6371 45.1066 65.5225 45.3709C66.2309 45.5912 66.9392 45.6352 67.6476 45.5912C68.7101 45.5031 69.6398 45.1507 70.4367 44.5781C70.5695 45.1066 70.7909 45.6793 71.1008 46.2079C72.2076 48.1461 74.3327 49.2473 76.6348 49.1152C77.2546 49.0711 77.9187 48.9389 78.5385 48.7187C81.1948 47.7496 82.8329 45.0185 82.3459 42.1553L82.1688 40.966C81.6818 37.8825 81.1505 34.755 80.6636 31.6716C80.6193 31.2751 80.5307 30.8346 80.4865 30.4382C80.9735 30.6144 81.5047 30.7465 82.036 30.7025C82.0803 30.7025 82.1245 30.7025 82.1688 30.7025C82.1688 30.9668 82.1688 31.2751 82.2131 31.5835C82.2573 32.4645 82.4787 33.4335 82.8329 34.4026C83.3642 35.9444 84.4267 36.9575 85.4007 37.7944C86.1533 38.4111 86.8616 39.1159 87.57 39.7326L87.7471 39.8648C86.596 40.3934 85.7991 41.4505 85.4892 42.728C85.1793 44.0495 85.5335 45.415 86.4632 46.3841C87.3929 47.3532 88.5882 47.8818 89.9164 48.0139C90.182 48.0139 90.4034 48.0139 90.669 48.0139C91.9086 47.9258 93.1483 47.4413 94.2551 46.5162C95.8931 45.1507 96.7786 43.5649 96.9114 41.7148C97.0885 40.2612 96.7786 39.16 96.5129 38.1909Z" fill="white"/>
</svg>
