<svg width="9" height="24" viewBox="0 0 9 24" fill="none" xmlns="http://www.w3.org/2000/svg">
<path d="M8.06418 23.4992C8.06418 23.7195 7.88709 23.9397 7.66573 23.9838C7.4001 24.0278 7.09019 23.8516 7.04592 23.5873L6.51466 21.1205C5.62922 17.2001 4.74378 13.1476 3.76979 9.18314C3.2828 7.20092 2.57445 5.21869 1.82182 3.06027C1.42337 2.00308 0.936382 2.00308 0.626478 2.00308C0.360846 2.00308 0.0952148 1.78283 0.0952148 1.47449C0.0952148 1.21019 0.316574 0.945892 0.626478 0.945892C1.64473 0.945892 2.39736 1.51854 2.79581 2.70787C3.59271 4.91034 4.25679 6.89257 4.78805 8.91884C5.76204 12.8833 6.64748 16.9358 7.53292 20.9003L8.06418 23.3671C8.06418 23.4111 8.06418 23.4552 8.06418 23.4992Z" fill="#A86952"/>
</svg>
